trial_3_ID.mot
nRows=7
nColumns=42

name trial_3_ID.mot
datacolumns 42
datarows 7
range 5.6800000000 5.7400000000
endheader
time	pelvis_tilt_moment	pelvis_list_moment	pelvis_rotation_moment	pelvis_tx_force	pelvis_ty_force	pelvis_tz_force	hip_flexion_r_moment	hip_adduction_r_moment	hip_rotation_r_moment	knee_angle_r_moment	knee_vv_r_moment	knee_rot_r_moment	ankle_angle_r_moment	subtalar_angle_r_moment	mtp_angle_r_moment	hip_flexion_l_moment	hip_adduction_l_moment	hip_rotation_l_moment	knee_angle_l_moment	knee_vv_l_moment	knee_rot_l_moment	ankle_angle_l_moment	subtalar_angle_l_moment	mtp_angle_l_moment	lumbar_extension_moment	lumbar_bending_moment	lumbar_rotation_moment	arm_flex_r_moment	arm_add_r_moment	arm_rot_r_moment	elbow_flex_r_moment	pro_sup_r_moment	wrist_flex_r_moment	wrist_dev_r_moment	arm_flex_l_moment	arm_add_l_moment	arm_rot_l_moment	elbow_flex_l_moment	pro_sup_l_moment	wrist_flex_l_moment	wrist_dev_l_moment
        5.6800000000	       10.3203764900	       -3.0228047900	       -4.9087768100	        9.5963493400	        9.0280632400	        4.8727411200	       -5.1433326300	      -42.1514725500	        3.1931063300	       12.2117831100	      -19.0638367100	       -0.3650276200	       -4.5710903600	        7.8025912600	        0.0268633100	        9.4779089800	        3.4097617000	       -2.3378520000	        3.1118058200	       -2.7293346200	       -0.2683352800	        0.7281970400	        0.0878513100	        0.0317707100	       21.2262687500	       -1.2885059900	       -4.9208264500	       -1.7660692600	       -1.1898645900	        0.0888562300	       -0.2121956200	        0.0149911300	        0.0375961200	        0.0382149200	        0.7203963600	       -2.2920598300	       -0.0483598100	       -0.4351159400	       -0.0141654800	       -0.0620557500	        0.0078603500	
        5.6900000000	        9.7637237800	       -2.3329590500	       -5.0099314300	       10.4905952900	        7.9369009000	        5.5936690500	       -4.7389104900	      -41.2964982700	        3.1797227900	       11.2051471900	      -18.4270028800	       -0.1403565200	       -4.9843075400	        8.0883837000	        0.0266585000	        9.2655432100	        3.1080646400	       -2.1625024000	        2.7330176700	       -2.5295256300	       -0.2489843600	        0.6850170300	        0.0768133200	        0.0299271300	       20.2300211200	       -0.3759391100	       -5.1975066800	       -1.7633800500	       -1.1647306900	        0.0998566200	       -0.1989069400	        0.0155446900	        0.0392734800	        0.0378682500	        0.8215249500	       -2.2279106700	       -0.0430139400	       -0.4195445800	       -0.0143782400	       -0.0644407400	        0.0072798300	
        5.7000000000	        9.1419981800	       -1.3474049800	       -5.0378940600	       12.0530326400	        5.7234679700	        6.3554098000	       -4.3582510000	      -40.5279951800	        3.2027660200	       10.1942496500	      -17.8873530000	        0.0899655700	       -5.4607931500	        8.3165337300	        0.0264666100	        9.0970741300	        2.6770607200	       -1.8939074200	        2.3748387100	       -2.2301633900	       -0.2189258900	        0.6712119200	        0.0536306500	        0.0291718100	       19.0355011700	        0.5635332800	       -5.3259326400	       -1.7151765800	       -1.1364569900	        0.1039287900	       -0.1764505300	        0.0151452400	        0.0398607800	        0.0360221600	        0.9138336500	       -2.1474794500	       -0.0413658100	       -0.3962956100	       -0.0151242700	       -0.0659644000	        0.0059072900	
        5.7100000000	        8.3983947300	       -0.0399570000	       -5.0158736600	       13.9400098100	        2.9769733800	        7.0105276200	       -4.0046963700	      -39.8730072000	        3.2526849100	        9.1940943800	      -17.4766260000	        0.3088504700	       -5.9992895300	        8.4680546000	        0.0263415500	        8.9221294100	        2.0856591900	       -1.5163079600	        2.0244653900	       -1.8108682800	       -0.1787861200	        0.6838648200	        0.0184154600	        0.0294098100	       17.7345640500	        1.4995695600	       -5.3183781800	       -1.6236090000	       -1.1055415300	        0.1011912100	       -0.1455249200	        0.0138790200	        0.0393878600	        0.0329239000	        0.9920013000	       -2.0587980700	       -0.0427918100	       -0.3689895700	       -0.0162413800	       -0.0667284300	        0.0040827900	
        5.7200000000	        7.4493595400	        1.5647033900	       -4.9673696900	       15.7267645500	        0.2837577100	        7.3540334800	       -3.6875690900	      -39.3478597600	        3.3153713800	        8.2114412300	      -17.2076186600	        0.5008253100	       -6.5988731500	        8.5371656900	        0.0263204700	        8.6718681500	        1.3078133600	       -1.0242487900	        1.6626239300	       -1.2599845200	       -0.1300794300	        0.7186096700	       -0.0278447400	        0.0305094100	       16.4156316700	        2.3780300400	       -5.2076215700	       -1.4951979000	       -1.0738627700	        0.0924759000	       -0.1082854400	        0.0119327300	        0.0379589200	        0.0290096600	        1.0533998900	       -1.9695251200	       -0.0463207100	       -0.3407919200	       -0.0175323600	       -0.0668722300	        0.0021077900	
        5.7300000000	        6.2137652800	        3.3897668500	       -4.9095571100	       16.9614622000	       -1.8703213600	        7.1669396900	       -3.4180187500	      -38.9583992600	        3.3750275100	        7.2452343400	      -17.0741861300	        0.6544615200	       -7.2620511800	        8.5328800900	        0.0264196300	        8.2707447900	        0.3345464900	       -0.4295797300	        1.2667911100	       -0.5824747900	       -0.0755665800	        0.7701365900	       -0.0829865100	        0.0323236900	       15.1612008900	        3.1296183500	       -5.0416160400	       -1.3399916000	       -1.0445336800	        0.0791914900	       -0.0680014100	        0.0095693400	        0.0357378700	        0.0248359200	        1.0982091800	       -1.8863621300	       -0.0507565000	       -0.3141402100	       -0.0187883200	       -0.0665607800	        0.0002146400	
        5.7400000000	        4.6430099500	        5.3137624000	       -4.8488790700	       17.2182322900	       -3.1689242100	        6.2727810800	       -3.2055789400	      -38.6997198100	        3.4168096100	        6.2864923700	      -17.0535139100	        0.7637028700	       -7.9972337700	        8.4775914600	        0.0266347800	        7.6524646800	       -0.8137740100	        0.2341841700	        0.8155278800	        0.1937927400	       -0.0194429900	        0.8327573100	       -0.1435013600	        0.0347112500	       14.0462130000	        3.6833971700	       -4.8748701200	       -1.1707383900	       -1.0213153800	        0.0632222600	       -0.0286428900	        0.0071041000	        0.0329483500	        0.0210108800	        1.1286366800	       -1.8147549400	       -0.0548332400	       -0.2907205000	       -0.0198098300	       -0.0659687800	       -0.0014375800	
